<svg version="1.2" xmlns="http://www.w3.org/2000/svg" viewBox="0 0 1920 1080" width="1920" height="1080">
	<title>qwer</title>
	<style>
		.s0 { fill: #00b2a6 } 
	</style>
	<path id="erupta 2025" class="s0" aria-label="erupta
2025"  d="m588.1 384.8h105.9l-8 30.2h-117.3zm-12.1 42h106.2l-8.6 32.7h-58.5l-4.7 17h58l-8.7 32.4h-105.6zm263.7-12.1h-139.5l19-29.9h102.5q4.1 0 8.2 2.9 4.4 2.9 6.5 6.8 3.3 6 3.3 20.2zm-131.3 12.1h129.1q-1.4 10.9-12.6 20.7-5 4.5-8.5 5.5 4.2 6.5 4.2 13.7 0 4.2-1.3 11.7-0.7 4.7-9.3 30.4h-40.4l14.4-49.5h-42.4l-15.3 49.5h-42zm227.4-41.4h41.2l-8.5 29.7h-41zm-74 0.2l40.3-0.2-8.3 29.7h-40.5zm62.9 41.3h41l-22.7 82-65.9 0.2q-30.9 0-38.3-18.5-2-5.1-2-10.1 0-2.9 0.7-5.4l13.4-48.2h39.9l-12.8 44.6q-0.9 3.1-0.9 4.5 0 3.6 3.6 4.7h28.8zm201.8-11.9h-138.4l18.5-30.1h101.7q4.2 0 8.5 2.9 4.3 2.9 6.3 6.9 3.4 6.3 3.4 20.3zm-131.4 12.1l128.2-0.2q-0.7 4.5-3.4 10.4-10.7 22.2-50.8 22.2h-41.4l-13.9 49.5h-41.2zm156.1-42.2h109.1l-8.3 29.9h-119.9zm21.8 42h40.7l-21.8 82h-41.2zm171.9-41.9l6.4 30.2h-77.7l25.9-30.2zm9 41.8l17.6 82.2h-45.1l-12.3-48.9h-25.5l-36.2 48.9h-52.8l64.5-82.2zm-617.3 143.1h102.8q0-11.2-3.6-17.5-6.9-12.4-17.1-12.4h-44.1q-11.9 0-23.1 9.2-11 9-14.9 20.7zm-25.8 94.5l103.7-0.2 8.7-30.6h-52.2q7.5-6.3 25.3-13.1 18-7.1 25.4-12.6 12.8-10.1 16.2-26h-45.5q0.2 0.4 0.2 0.9 0 5.1-18.8 13.9-27.7 13-39 22.5-22.2 18.4-24 45.2zm182.7-124h16.8l28.6-0.4q23.6-0.2 23.6 24.5 0 2.5-0.2 5.4h-102.8q3.6-11.2 13-20 10.1-9.5 21-9.5zm-5.5 80.1l1.4-4.9 9.5-33.7h-41.9l-9.2 33.9q-2.5 9.2-2.5 17.6 0 7.2 2 12.1 4.3 11 17.3 15.5 7.2 2.5 20.5 3.2l4.8 0.2q47.9-2 59.6-44.8 0.9-3.6 3.8-14.3l5.9-23.2-41-0.2-10.3 38.2q-2.1 8.1-10.4 8.5-9.5 0.3-9.5-6.2 0-0.9 0-1.9zm96.3-50.6h102.7q0-11.2-3.6-17.5-6.8-12.4-17.1-12.4h-44.1q-11.8 0-23 9.2-11 9-14.9 20.7zm-25.8 94.5l103.7-0.2 8.6-30.6h-52.2q7.6-6.3 25.4-13.1 18-7.1 25.4-12.6 12.8-10.1 16.2-26h-45.5q0.1 0.4 0.1 0.9 0 5.1-18.7 13.9-27.7 13-39 22.5-22.2 18.4-24 45.2zm257.1-124.4l-9 29.9h-107.5l19.1-29.9zm-117.4 73.6l48.3 0.4q7.5 0 10.6 0.7 6.5 1.6 6.5 6.8 0 5.1-3.8 9-3.6 4-8.8 4.4-3.8 0.3-6 0.3-10.4 0-10.4-6.6 0-1.3 0.2-2.6l-40.4-0.1q-1.8 11.3-0.9 15.4 4.7 23.1 30.3 23.1h35.4q8.1-1.3 17.5-7.2 8.3-5.2 12.1-10.1 9.3-12.1 11.3-27.5 0.2-2.2 0.2-4.2 0-10.8-5.8-17.8-6.8-9-16-12.2-9-3.5-22.1-3.5h-49z"/>
</svg>